<svg width="480" height="481" viewBox="0 0 480 481" fill="none" xmlns="http://www.w3.org/2000/svg">
<path d="M239.994 380.636C280.28 380.636 318.631 363.597 350.87 331.342L322.535 303.007C272.392 353.149 207.595 353.149 157.452 303.007L129.117 331.342C161.356 363.581 199.707 380.636 239.994 380.636Z" fill="#FFFFFF"/>
<path d="M320.149 0.361084V40.4558C373.828 41.6397 409.298 45.5116 422.066 58.2632C434.817 71.0147 438.705 106.486 439.873 160.18H479.968C477.104 23.0803 457.265 3.24099 320.149 0.361084ZM0 160.196H40.0947C41.2786 106.518 45.1505 71.0467 57.9021 58.2792C70.6536 45.5276 106.124 41.6397 159.819 40.4718V0.361084C22.7192 3.24099 2.8799 23.0803 0 160.196ZM439.889 320.51C438.705 374.189 434.833 409.659 422.082 422.427C409.33 435.179 373.86 439.067 320.165 440.234V480.329C457.281 477.449 477.12 457.61 480 320.494H439.905L439.889 320.51ZM40.1107 320.51H0C2.8799 457.626 22.7192 477.465 159.835 480.345V440.25C106.156 439.067 70.6856 435.195 57.9181 422.443C45.1665 409.691 41.2786 374.221 40.1107 320.526V320.51Z" fill="#FFFFFF"/>
</svg>
